{"title":"The Beaver 2011 DVDrip English Klam","uid":6623624,"size":1136915226,"categoryP":"video","categoryS":"movies","magnet":"?xt=urn:btih:6acb0ada931a0418eedbe1be17605a58db1ece94&amp;dn=The+Beaver+2011+DVDrip+English+Klam&amp;tr=udp%3A%2F%2Ftracker.openbittorrent.com%3A80&amp;tr=udp%3A%2F%2Fopen.demonii.com%3A1337&amp;tr=udp%3A%2F%2Ftracker.coppersurfer.tk%3A6969&amp;tr=udp%3A%2F%2Fexodus.desync.com%3A6969","seeders":0,"leechers":0,"uploader":"Klambake","files":-1,"time":1314093306,"description":"With: Mel Gibson, Jodie Foster and Anton Yelchin\n\nWalter Black (Mel Gibson) lijdt aan extreme depressies. Hij slaapt veel, probeert verschillende vormen van zelftherapie uit en ziet ondertussen dat zijn vrouw Meredith (Jodie Foster) zich zoveel mogelijk achter haar werk verschuilt, hulpeloos toeziet hoe hij er aan onderdoor gaat en uiteindelijk zelfs besluit om hem het huis uit te schoppen. Walter besluit zichzelf helemaal klem te zuipen om vervolgens zelfmoord te plegen. De zelfmoordpoging mislukt en wanneer Walter wakker wordt ziet hij twee plastic ogen, een grote staart en een brede grijns tussen het afval liggen. Een bever! Vanaf dat moment loopt Walter 24 uur per dag met de bever-pop aan zijn hand, om vervolgens alleen maar via de pop te communiceren en deze als een levend wezen te behandelen. Walter gaat terug naar huis en alles lijkt verrassend genoeg weer beter te gaan tussen hem, zijn vrouw en de kinderen. Totdat de bever complete controle over het leven van Walter lijkt te krijgen...\n\nA troubled husband and executive adopts a beaver hand-puppet as his sole means of communicating. \n\n------------------ Dutch Friends ------------------\nYou can find my Friends at: http://www.Film-Test.nl \n------ They got my dutchs subs ---- and more ------\n\nGeneral:\n\nComplete name                    : The Beaver\\The Beaver.avi\nFormat                           : AVI\nFormat/Info                      : Audio Video Interleave\nFile size                        : 1.06 GiB\nDuration                         : 1h 30mn\nOverall bit rate                 : 1 666 Kbps\n\nVideo:\n\nFormat                           : MPEG-4 Visual\nFormat profile                   : Simple@L3\nFormat settings, BVOP            : No\nFormat settings, QPel            : No\nFormat settings, GMC             : No warppoints\nFormat settings, Matrix          : Default (H.263)\nCodec ID                         : XVID\nCodec ID/Hint                    : XviD\nDuration                         : 1h 30mn\nBit rate                         : 1 207 Kbps\nWidth                            : 720 pixels\nHeight                           : 304 pixels\nDisplay aspect ratio             : 2.35:1\nFrame rate                       : 23.976 fps\nColor space                      : YUV\nChroma subsampling               : 4:2:0\nBit depth                        : 8 bits\nScan type                        : Progressive\nBits/(Pixel*Frame)               : 0.230\nStream size                      : 786 MiB (72%)\nWriting library                  : XviD 1.1.2 (UTC 2006-11-01)\n\nAudio:\n\nFormat                           : AC-3\nFormat/Info                      : Audio Coding 3\nMode extension                   : CM (complete main)\nCodec ID                         : 2000\nDuration                         : 1h 30mn\nBit rate mode                    : Constant\nBit rate                         : 448 Kbps\nChannel(s)                       : 6 channels\nChannel positions                : Front: L C R, Side: L R, LFE\nSampling rate                    : 48.0 KHz\nBit depth                        : 16 bits\nStream size                      : 292 MiB (27%)\nAlignment                        : Aligned on interleaves\nInterleave, duration             : 32 ms (0.77 video frame)\nInterleave, preload duration     : 864 ms\n","torrent":{"xt":"urn:btih:6acb0ada931a0418eedbe1be17605a58db1ece94","amp;dn":"The+Beaver+2011+DVDrip+English+Klam","amp;tr":["udp%3A%2F%2Ftracker.openbittorrent.com%3A80","udp%3A%2F%2Fopen.demonii.com%3A1337","udp%3A%2F%2Ftracker.coppersurfer.tk%3A6969","udp%3A%2F%2Fexodus.desync.com%3A6969"],"infoHash":"6acb0ada931a0418eedbe1be17605a58db1ece94","infoHashBuffer":{"type":"Buffer","data":[106,203,10,218,147,26,4,24,238,219,225,190,23,96,90,88,219,30,206,148]},"announce":[],"urlList":[]}}